<svg xmlns="http://www.w3.org/2000/svg" viewBox="-115 -115 230 230" width="32" height="32">
  <defs>
    <linearGradient id="pg" x1="0" y1="1" x2="0" y2="0">
      <stop offset="0" stop-color="#E79DC2"/>
      <stop offset="1" stop-color="#F9D6E4"/>
    </linearGradient>
  </defs>


  <!-- Outer petals -->
  <path transform="rotate(0)"   d="M0,0 C -16,-38 -13,-86 0,-108 C 13,-86 16,-38 0,0 Z" fill="url(#pg)" stroke="#C27CA2" stroke-width="1.3" stroke-opacity="0.7" opacity="0.95"/>
  <path transform="rotate(45)"  d="M0,0 C -16,-38 -13,-86 0,-108 C 13,-86 16,-38 0,0 Z" fill="url(#pg)" stroke="#C27CA2" stroke-width="1.3" stroke-opacity="0.7" opacity="0.95"/>
  <path transform="rotate(90)"  d="M0,0 C -16,-38 -13,-86 0,-108 C 13,-86 16,-38 0,0 Z" fill="url(#pg)" stroke="#C27CA2" stroke-width="1.3" stroke-opacity="0.7" opacity="0.95"/>
  <path transform="rotate(135)" d="M0,0 C -16,-38 -13,-86 0,-108 C 13,-86 16,-38 0,0 Z" fill="url(#pg)" stroke="#C27CA2" stroke-width="1.3" stroke-opacity="0.7" opacity="0.95"/>
  <path transform="rotate(180)" d="M0,0 C -16,-38 -13,-86 0,-108 C 13,-86 16,-38 0,0 Z" fill="url(#pg)" stroke="#C27CA2" stroke-width="1.3" stroke-opacity="0.7" opacity="0.95"/>
  <path transform="rotate(225)" d="M0,0 C -16,-38 -13,-86 0,-108 C 13,-86 16,-38 0,0 Z" fill="url(#pg)" stroke="#C27CA2" stroke-width="1.3" stroke-opacity="0.7" opacity="0.95"/>
  <path transform="rotate(270)" d="M0,0 C -16,-38 -13,-86 0,-108 C 13,-86 16,-38 0,0 Z" fill="url(#pg)" stroke="#C27CA2" stroke-width="1.3" stroke-opacity="0.7" opacity="0.95"/>
  <path transform="rotate(315)" d="M0,0 C -16,-38 -13,-86 0,-108 C 13,-86 16,-38 0,0 Z" fill="url(#pg)" stroke="#C27CA2" stroke-width="1.3" stroke-opacity="0.7" opacity="0.95"/>

  <!-- Inner petals -->
  <path transform="rotate(22.5)"  d="M0,0 C -19,-26 -15,-62 0,-82 C 15,-62 19,-26 0,0 Z" fill="url(#pg)" stroke="#B96E96" stroke-width="1.2" stroke-opacity="0.8"/>
  <path transform="rotate(67.5)"  d="M0,0 C -19,-26 -15,-62 0,-82 C 15,-62 19,-26 0,0 Z" fill="url(#pg)" stroke="#B96E96" stroke-width="1.2" stroke-opacity="0.8"/>
  <path transform="rotate(112.5)" d="M0,0 C -19,-26 -15,-62 0,-82 C 15,-62 19,-26 0,0 Z" fill="url(#pg)" stroke="#B96E96" stroke-width="1.2" stroke-opacity="0.8"/>
  <path transform="rotate(157.5)" d="M0,0 C -19,-26 -15,-62 0,-82 C 15,-62 19,-26 0,0 Z" fill="url(#pg)" stroke="#B96E96" stroke-width="1.2" stroke-opacity="0.8"/>
  <path transform="rotate(202.5)" d="M0,0 C -19,-26 -15,-62 0,-82 C 15,-62 19,-26 0,0 Z" fill="url(#pg)" stroke="#B96E96" stroke-width="1.2" stroke-opacity="0.8"/>
  <path transform="rotate(247.5)" d="M0,0 C -19,-26 -15,-62 0,-82 C 15,-62 19,-26 0,0 Z" fill="url(#pg)" stroke="#B96E96" stroke-width="1.2" stroke-opacity="0.8"/>
  <path transform="rotate(292.5)" d="M0,0 C -19,-26 -15,-62 0,-82 C 15,-62 19,-26 0,0 Z" fill="url(#pg)" stroke="#B96E96" stroke-width="1.2" stroke-opacity="0.8"/>
  <path transform="rotate(337.5)" d="M0,0 C -19,-26 -15,-62 0,-82 C 15,-62 19,-26 0,0 Z" fill="url(#pg)" stroke="#B96E96" stroke-width="1.2" stroke-opacity="0.8"/>

  <!-- Stamens -->
  <g transform="rotate(0)">  <path d="M0,-2 Q 3,-20 1,-34" fill="none" stroke="#BC7398" stroke-width="1.3" stroke-linecap="round"/><circle cx="1" cy="-34" r="3" fill="#E0B873"/></g>
  <g transform="rotate(30)"> <path d="M0,-2 Q 3,-20 1,-34" fill="none" stroke="#BC7398" stroke-width="1.3" stroke-linecap="round"/><circle cx="1" cy="-34" r="3" fill="#E0B873"/></g>
  <g transform="rotate(60)"> <path d="M0,-2 Q 3,-20 1,-34" fill="none" stroke="#BC7398" stroke-width="1.3" stroke-linecap="round"/><circle cx="1" cy="-34" r="3" fill="#E0B873"/></g>
  <g transform="rotate(90)"> <path d="M0,-2 Q 3,-20 1,-34" fill="none" stroke="#BC7398" stroke-width="1.3" stroke-linecap="round"/><circle cx="1" cy="-34" r="3" fill="#E0B873"/></g>
  <g transform="rotate(120)"><path d="M0,-2 Q 3,-20 1,-34" fill="none" stroke="#BC7398" stroke-width="1.3" stroke-linecap="round"/><circle cx="1" cy="-34" r="3" fill="#E0B873"/></g>
  <g transform="rotate(150)"><path d="M0,-2 Q 3,-20 1,-34" fill="none" stroke="#BC7398" stroke-width="1.3" stroke-linecap="round"/><circle cx="1" cy="-34" r="3" fill="#E0B873"/></g>
  <g transform="rotate(180)"><path d="M0,-2 Q 3,-20 1,-34" fill="none" stroke="#BC7398" stroke-width="1.3" stroke-linecap="round"/><circle cx="1" cy="-34" r="3" fill="#E0B873"/></g>
  <g transform="rotate(210)"><path d="M0,-2 Q 3,-20 1,-34" fill="none" stroke="#BC7398" stroke-width="1.3" stroke-linecap="round"/><circle cx="1" cy="-34" r="3" fill="#E0B873"/></g>
  <g transform="rotate(240)"><path d="M0,-2 Q 3,-20 1,-34" fill="none" stroke="#BC7398" stroke-width="1.3" stroke-linecap="round"/><circle cx="1" cy="-34" r="3" fill="#E0B873"/></g>
  <g transform="rotate(270)"><path d="M0,-2 Q 3,-20 1,-34" fill="none" stroke="#BC7398" stroke-width="1.3" stroke-linecap="round"/><circle cx="1" cy="-34" r="3" fill="#E0B873"/></g>
  <g transform="rotate(300)"><path d="M0,-2 Q 3,-20 1,-34" fill="none" stroke="#BC7398" stroke-width="1.3" stroke-linecap="round"/><circle cx="1" cy="-34" r="3" fill="#E0B873"/></g>
  <g transform="rotate(330)"><path d="M0,-2 Q 3,-20 1,-34" fill="none" stroke="#BC7398" stroke-width="1.3" stroke-linecap="round"/><circle cx="1" cy="-34" r="3" fill="#E0B873"/></g>

  <!-- Center -->
  <circle r="9" fill="#F5DFA8" stroke="#D9A86A" stroke-width="1.2"/>
</svg>
